<svg width="150" height="50" viewBox="0 0 644 213" fill="none" xmlns="http://www.w3.org/2000/svg">
<g filter="url(#filter0_di_33_2)">
<path d="M171.253 119.147C168.723 120.083 166.803 122.148 165.802 124.652C156.665 147.518 133.791 164 106.532 164C71.0513 164 43 136.078 43 102.5C43 68.9223 71.0513 41 106.532 41C125.304 41 141.997 48.8166 153.555 61.1518C156.031 63.7941 159.811 64.9342 163.207 63.6776C168.229 61.8194 170.185 55.7295 166.623 51.7305C152.041 35.3555 130.527 25 106.532 25C62.6075 25 27 59.6979 27 102.5C27 145.302 62.6075 180 106.532 180C141.145 180 170.594 158.453 181.524 128.372C183.803 122.098 177.513 116.831 171.253 119.147Z" fill="#CBD5E1"/>
</g>
<g filter="url(#filter1_di_33_2)">
<circle cx="173" cy="90" r="8" fill="#E2E8F0"/>
</g>
<g filter="url(#filter2_di_33_2)">
<path d="M116.262 198.663C116.262 195.578 118.595 193.01 121.637 192.496C164.384 185.265 197 147.928 197 102.881C197 52.6468 156.44 12 106.5 12C56.5602 12 16 52.6468 16 102.881C16 148.991 50.1737 187.023 94.4069 192.957C97.5403 193.378 99.9917 195.98 99.9917 199.141C99.9917 202.618 97.049 205.39 93.5996 204.955C43.08 198.587 4 155.315 4 102.881C4 46.0614 49.8908 0 106.5 0C163.109 0 209 46.0614 209 102.881C209 154.115 171.688 196.602 122.851 204.46C119.335 205.026 116.262 202.223 116.262 198.663Z" fill="#064E3B"/>
</g>
<g filter="url(#filter3_d_33_2)">
<path d="M107.489 144.033C104.266 140.743 104.184 135.33 107.305 131.944C110.426 128.557 115.568 128.479 118.79 131.769L174.68 188.833C177.903 192.123 177.985 197.536 174.864 200.922C171.743 204.309 166.601 204.387 163.379 201.097L107.489 144.033Z" fill="#F1F5F9"/>
</g>
<path d="M344.1 71.1C339.847 62.1533 333.687 55.26 325.62 50.42C317.553 45.4333 308.167 42.94 297.46 42.94C286.753 42.94 277.073 45.4333 268.42 50.42C259.913 55.26 253.167 62.3 248.18 71.54C243.34 80.6333 240.92 91.1933 240.92 103.22C240.92 115.247 243.34 125.807 248.18 134.9C253.167 143.993 259.913 151.033 268.42 156.02C277.073 160.86 286.753 163.28 297.46 163.28C312.42 163.28 324.74 158.807 334.42 149.86C344.1 140.913 349.747 128.813 351.36 113.56H290.2V97.28H372.7V112.68C371.527 125.293 367.567 136.88 360.82 147.44C354.073 157.853 345.2 166.14 334.2 172.3C323.2 178.313 310.953 181.32 297.46 181.32C283.233 181.32 270.253 178.02 258.52 171.42C246.787 164.673 237.473 155.36 230.58 143.48C223.833 131.6 220.46 118.18 220.46 103.22C220.46 88.26 223.833 74.84 230.58 62.96C237.473 50.9333 246.787 41.62 258.52 35.02C270.253 28.2733 283.233 24.9 297.46 24.9C313.74 24.9 328.113 28.9333 340.58 37C353.193 45.0666 362.36 56.4333 368.08 71.1H344.1Z" fill="white"/>
<path d="M509.17 115.1C509.17 118.913 508.95 122.947 508.51 127.2H412.15C412.884 139.08 416.917 148.393 424.25 155.14C431.73 161.74 440.75 165.04 451.31 165.04C459.964 165.04 467.15 163.06 472.87 159.1C478.737 154.993 482.844 149.567 485.19 142.82H506.75C503.524 154.407 497.07 163.867 487.39 171.2C477.71 178.387 465.684 181.98 451.31 181.98C439.87 181.98 429.604 179.413 420.51 174.28C411.564 169.147 404.524 161.887 399.39 152.5C394.257 142.967 391.69 131.967 391.69 119.5C391.69 107.033 394.184 96.1066 399.17 86.72C404.157 77.3333 411.124 70.1466 420.07 65.16C429.164 60.0266 439.577 57.46 451.31 57.46C462.75 57.46 472.87 59.9533 481.67 64.94C490.47 69.9266 497.217 76.82 501.91 85.62C506.75 94.2733 509.17 104.1 509.17 115.1ZM488.49 110.92C488.49 103.293 486.804 96.7666 483.43 91.34C480.057 85.7666 475.437 81.5866 469.57 78.8C463.85 75.8666 457.47 74.4 450.43 74.4C440.31 74.4 431.657 77.6266 424.47 84.08C417.43 90.5333 413.397 99.48 412.37 110.92H488.49Z" fill="white"/>
<path d="M594.336 57.24C609.003 57.24 620.883 61.7133 629.976 70.66C639.07 79.46 643.616 92.22 643.616 108.94V180H623.816V111.8C623.816 99.7733 620.81 90.6066 614.796 84.3C608.783 77.8466 600.57 74.62 590.156 74.62C579.596 74.62 571.163 77.92 564.856 84.52C558.696 91.12 555.616 100.727 555.616 113.34V180H535.596V59.44H555.616V76.6C559.576 70.44 564.93 65.6733 571.676 62.3C578.57 58.9266 586.123 57.24 594.336 57.24Z" fill="white"/>
<g filter="url(#filter4_di_33_2)">
<circle cx="104.5" cy="102.5" r="12.5" fill="#059669"/>
</g>
<defs>
<filter id="filter0_di_33_2" x="23" y="25" width="163.001" height="163" filterUnits="userSpaceOnUse" color-interpolation-filters="sRGB">
<feFlood flood-opacity="0" result="BackgroundImageFix"/>
<feColorMatrix in="SourceAlpha" type="matrix" values="0 0 0 0 0 0 0 0 0 0 0 0 0 0 0 0 0 0 127 0" result="hardAlpha"/>
<feOffset dy="4"/>
<feGaussianBlur stdDeviation="2"/>
<feComposite in2="hardAlpha" operator="out"/>
<feColorMatrix type="matrix" values="0 0 0 0 0 0 0 0 0 0 0 0 0 0 0 0 0 0 0.25 0"/>
<feBlend mode="normal" in2="BackgroundImageFix" result="effect1_dropShadow_33_2"/>
<feBlend mode="normal" in="SourceGraphic" in2="effect1_dropShadow_33_2" result="shape"/>
<feColorMatrix in="SourceAlpha" type="matrix" values="0 0 0 0 0 0 0 0 0 0 0 0 0 0 0 0 0 0 127 0" result="hardAlpha"/>
<feOffset dx="2" dy="2"/>
<feGaussianBlur stdDeviation="0.5"/>
<feComposite in2="hardAlpha" operator="arithmetic" k2="-1" k3="1"/>
<feColorMatrix type="matrix" values="0 0 0 0 1 0 0 0 0 1 0 0 0 0 1 0 0 0 0.25 0"/>
<feBlend mode="normal" in2="shape" result="effect2_innerShadow_33_2"/>
</filter>
<filter id="filter1_di_33_2" x="161" y="82" width="24" height="24" filterUnits="userSpaceOnUse" color-interpolation-filters="sRGB">
<feFlood flood-opacity="0" result="BackgroundImageFix"/>
<feColorMatrix in="SourceAlpha" type="matrix" values="0 0 0 0 0 0 0 0 0 0 0 0 0 0 0 0 0 0 127 0" result="hardAlpha"/>
<feOffset dy="4"/>
<feGaussianBlur stdDeviation="2"/>
<feComposite in2="hardAlpha" operator="out"/>
<feColorMatrix type="matrix" values="0 0 0 0 0 0 0 0 0 0 0 0 0 0 0 0 0 0 0.25 0"/>
<feBlend mode="normal" in2="BackgroundImageFix" result="effect1_dropShadow_33_2"/>
<feBlend mode="normal" in="SourceGraphic" in2="effect1_dropShadow_33_2" result="shape"/>
<feColorMatrix in="SourceAlpha" type="matrix" values="0 0 0 0 0 0 0 0 0 0 0 0 0 0 0 0 0 0 127 0" result="hardAlpha"/>
<feOffset dx="2" dy="2"/>
<feGaussianBlur stdDeviation="0.5"/>
<feComposite in2="hardAlpha" operator="arithmetic" k2="-1" k3="1"/>
<feColorMatrix type="matrix" values="0 0 0 0 1 0 0 0 0 1 0 0 0 0 1 0 0 0 0.25 0"/>
<feBlend mode="normal" in2="shape" result="effect2_innerShadow_33_2"/>
</filter>
<filter id="filter2_di_33_2" x="0" y="0" width="213" height="213" filterUnits="userSpaceOnUse" color-interpolation-filters="sRGB">
<feFlood flood-opacity="0" result="BackgroundImageFix"/>
<feColorMatrix in="SourceAlpha" type="matrix" values="0 0 0 0 0 0 0 0 0 0 0 0 0 0 0 0 0 0 127 0" result="hardAlpha"/>
<feOffset dy="4"/>
<feGaussianBlur stdDeviation="2"/>
<feComposite in2="hardAlpha" operator="out"/>
<feColorMatrix type="matrix" values="0 0 0 0 0 0 0 0 0 0 0 0 0 0 0 0 0 0 0.25 0"/>
<feBlend mode="normal" in2="BackgroundImageFix" result="effect1_dropShadow_33_2"/>
<feBlend mode="normal" in="SourceGraphic" in2="effect1_dropShadow_33_2" result="shape"/>
<feColorMatrix in="SourceAlpha" type="matrix" values="0 0 0 0 0 0 0 0 0 0 0 0 0 0 0 0 0 0 127 0" result="hardAlpha"/>
<feOffset dx="2" dy="2"/>
<feGaussianBlur stdDeviation="1"/>
<feComposite in2="hardAlpha" operator="arithmetic" k2="-1" k3="1"/>
<feColorMatrix type="matrix" values="0 0 0 0 0.0196078 0 0 0 0 0.588235 0 0 0 0 0.411765 0 0 0 0.25 0"/>
<feBlend mode="normal" in2="shape" result="effect2_innerShadow_33_2"/>
</filter>
<filter id="filter3_d_33_2" x="101.017" y="129.352" width="80.1353" height="82.162" filterUnits="userSpaceOnUse" color-interpolation-filters="sRGB">
<feFlood flood-opacity="0" result="BackgroundImageFix"/>
<feColorMatrix in="SourceAlpha" type="matrix" values="0 0 0 0 0 0 0 0 0 0 0 0 0 0 0 0 0 0 127 0" result="hardAlpha"/>
<feOffset dy="4"/>
<feGaussianBlur stdDeviation="2"/>
<feComposite in2="hardAlpha" operator="out"/>
<feColorMatrix type="matrix" values="0 0 0 0 0 0 0 0 0 0 0 0 0 0 0 0 0 0 0.25 0"/>
<feBlend mode="normal" in2="BackgroundImageFix" result="effect1_dropShadow_33_2"/>
<feBlend mode="normal" in="SourceGraphic" in2="effect1_dropShadow_33_2" result="shape"/>
</filter>
<filter id="filter4_di_33_2" x="88" y="90" width="33" height="33" filterUnits="userSpaceOnUse" color-interpolation-filters="sRGB">
<feFlood flood-opacity="0" result="BackgroundImageFix"/>
<feColorMatrix in="SourceAlpha" type="matrix" values="0 0 0 0 0 0 0 0 0 0 0 0 0 0 0 0 0 0 127 0" result="hardAlpha"/>
<feOffset dy="4"/>
<feGaussianBlur stdDeviation="2"/>
<feComposite in2="hardAlpha" operator="out"/>
<feColorMatrix type="matrix" values="0 0 0 0 0 0 0 0 0 0 0 0 0 0 0 0 0 0 0.25 0"/>
<feBlend mode="normal" in2="BackgroundImageFix" result="effect1_dropShadow_33_2"/>
<feBlend mode="normal" in="SourceGraphic" in2="effect1_dropShadow_33_2" result="shape"/>
<feColorMatrix in="SourceAlpha" type="matrix" values="0 0 0 0 0 0 0 0 0 0 0 0 0 0 0 0 0 0 127 0" result="hardAlpha"/>
<feOffset dx="1" dy="2"/>
<feGaussianBlur stdDeviation="0.5"/>
<feComposite in2="hardAlpha" operator="arithmetic" k2="-1" k3="1"/>
<feColorMatrix type="matrix" values="0 0 0 0 0.431373 0 0 0 0 0.905882 0 0 0 0 0.717647 0 0 0 0.25 0"/>
<feBlend mode="normal" in2="shape" result="effect2_innerShadow_33_2"/>
</filter>
</defs>
</svg>
